<svg xmlns="http://www.w3.org/2000/svg" xmlns:xlink="http://www.w3.org/1999/xlink" width="375" zoomAndPan="magnify" viewBox="0 0 281.25 608.999982" height="812" preserveAspectRatio="xMidYMid meet" version="1.0"><defs><clipPath id="7c504d621d"><path d="M 0 0.808594 L 280.503906 0.808594 L 280.503906 281.3125 L 0 281.3125 Z M 0 0.808594 " clip-rule="nonzero"/></clipPath></defs><g clip-path="url(#7c504d621d)"><path fill="#000000" d="M 140.25 281.3125 C 217.710938 281.3125 280.503906 218.519531 280.503906 141.0625 C 280.503906 63.601562 217.710938 0.808594 140.25 0.808594 C 62.792969 0.808594 0 63.601562 0 141.0625 C 0 218.519531 62.792969 281.3125 140.25 281.3125 Z M 127.058594 73.742188 C 118.558594 73.742188 110.785156 78.542969 106.984375 86.144531 L 104.035156 92.046875 C 102.769531 94.578125 100.179688 96.179688 97.34375 96.179688 L 87.890625 96.179688 C 75.496094 96.179688 65.449219 106.226562 65.449219 118.621094 L 65.449219 185.941406 C 65.449219 198.335938 75.496094 208.382812 87.890625 208.382812 L 192.613281 208.382812 C 205.003906 208.382812 215.050781 198.335938 215.050781 185.941406 L 215.050781 118.621094 C 215.050781 106.226562 205.003906 96.179688 192.613281 96.179688 L 183.15625 96.179688 C 180.324219 96.179688 177.734375 94.578125 176.464844 92.046875 L 173.515625 86.144531 C 169.714844 78.542969 161.945312 73.742188 153.445312 73.742188 Z M 140.25 126.101562 C 127.859375 126.101562 117.8125 136.148438 117.8125 148.539062 C 117.8125 160.933594 127.859375 170.980469 140.25 170.980469 C 152.644531 170.980469 162.691406 160.933594 162.691406 148.539062 C 162.691406 136.148438 152.644531 126.101562 140.25 126.101562 Z M 102.851562 148.539062 C 102.851562 127.886719 119.597656 111.140625 140.25 111.140625 C 160.90625 111.140625 177.652344 127.886719 177.652344 148.539062 C 177.652344 169.195312 160.90625 185.941406 140.25 185.941406 C 119.597656 185.941406 102.851562 169.195312 102.851562 148.539062 Z M 102.851562 148.539062 " fill-opacity="1" fill-rule="evenodd"/></g></svg>