<svg xmlns="http://www.w3.org/2000/svg" viewBox="0 0 24 24" fill="currentColor">
  <path d="M20 4h-3.17L15 2H9L7.17 4H4c-1.1 0-2 .9-2 2v12c0 1.1.9 2 2 2h16c1.1 0 2-.9 2-2V6c0-1.1-.9-2-2-2zm0 14H4V6h4.05l1.83-2h4.24l1.83 2H20v12z"/>
  <path d="M12 7c-2.76 0-5 2.24-5 5s2.24 5 5 5 5-2.24 5-5-2.24-5-5-5zm2.5 5c0 1.38-1.12 2.5-2.5 2.5S9.5 13.38 9.5 12s1.12-2.5 2.5-2.5 2.5 1.12 2.5 2.5z"/>
  <path d="M8.5 10l-1.5 1.5V9h-2v6h2v-2.5L8.5 14l3-3z"/>
  <path d="M17.5 10l-3 3 3 3 1.5-1.5V17h2v-6h-2v2.5z"/>
</svg> 