<svg xmlns="http://www.w3.org/2000/svg" xmlns:xlink="http://www.w3.org/1999/xlink" width="375" zoomAndPan="magnify" viewBox="0 0 281.25 608.999982" height="812" preserveAspectRatio="xMidYMid meet" version="1.0"><path fill="#000000" d="M 137.746094 4.566406 C 134.851562 4.5625 131.960938 4.65625 129.074219 4.84375 C 126.1875 5.03125 123.308594 5.3125 120.441406 5.691406 C 117.570312 6.066406 114.71875 6.539062 111.878906 7.105469 C 109.042969 7.671875 106.226562 8.332031 103.433594 9.085938 C 100.636719 9.835938 97.871094 10.679688 95.132812 11.617188 C 92.394531 12.550781 89.691406 13.578125 87.019531 14.691406 C 84.351562 15.804688 81.71875 17.003906 79.128906 18.292969 C 76.535156 19.582031 73.992188 20.953125 71.492188 22.410156 C 68.988281 23.867188 66.539062 25.402344 64.140625 27.023438 C 61.742188 28.640625 59.398438 30.335938 57.113281 32.109375 C 54.828125 33.882812 52.601562 35.730469 50.4375 37.648438 C 48.269531 39.570312 46.171875 41.558594 44.140625 43.617188 C 42.105469 45.675781 40.144531 47.800781 38.25 49.988281 C 36.359375 52.179688 34.539062 54.425781 32.796875 56.738281 C 31.050781 59.046875 29.386719 61.410156 27.796875 63.828125 C 26.210938 66.246094 24.703125 68.714844 23.277344 71.234375 C 21.855469 73.753906 20.515625 76.316406 19.257812 78.925781 C 18.003906 81.53125 16.835938 84.175781 15.753906 86.863281 C 14.675781 89.546875 13.683594 92.261719 12.785156 95.011719 C 11.882812 97.761719 11.074219 100.539062 10.359375 103.34375 C 9.640625 106.148438 9.015625 108.96875 8.488281 111.816406 C 7.957031 114.660156 7.519531 117.519531 7.179688 120.390625 C 6.835938 123.265625 6.589844 126.148438 6.441406 129.035156 C 6.289062 131.925781 6.234375 134.816406 6.273438 137.710938 C 6.3125 140.605469 6.449219 143.492188 6.679688 146.378906 C 6.910156 149.261719 7.238281 152.136719 7.660156 155 C 8.082031 157.863281 8.59375 160.707031 9.203125 163.535156 C 9.8125 166.367188 10.515625 169.171875 11.3125 171.953125 C 12.105469 174.734375 12.992188 177.488281 13.96875 180.210938 C 14.945312 182.9375 16.011719 185.625 17.164062 188.277344 C 18.320312 190.933594 19.558594 193.542969 20.886719 196.117188 C 22.214844 198.6875 23.625 201.210938 25.117188 203.691406 L 6.578125 259.296875 C 6.421875 259.765625 6.324219 260.25 6.28125 260.742188 C 6.238281 261.238281 6.257812 261.730469 6.332031 262.21875 C 6.40625 262.710938 6.539062 263.183594 6.726562 263.644531 C 6.914062 264.101562 7.152344 264.535156 7.441406 264.9375 C 7.734375 265.339844 8.066406 265.703125 8.441406 266.023438 C 8.820312 266.347656 9.226562 266.621094 9.667969 266.847656 C 10.109375 267.074219 10.574219 267.246094 11.054688 267.363281 C 11.539062 267.480469 12.027344 267.535156 12.523438 267.539062 C 13.199219 267.539062 13.859375 267.429688 14.503906 267.214844 L 70.109375 248.679688 C 72.269531 249.980469 74.46875 251.214844 76.699219 252.386719 C 78.933594 253.558594 81.199219 254.664062 83.496094 255.707031 C 85.792969 256.75 88.117188 257.722656 90.46875 258.632812 C 92.820312 259.539062 95.199219 260.378906 97.601562 261.152344 C 100 261.921875 102.421875 262.625 104.863281 263.253906 C 107.304688 263.886719 109.761719 264.449219 112.238281 264.9375 C 114.710938 265.429688 117.195312 265.847656 119.695312 266.195312 C 122.191406 266.542969 124.699219 266.816406 127.210938 267.019531 C 129.726562 267.222656 132.242188 267.351562 134.765625 267.410156 C 137.285156 267.46875 139.808594 267.453125 142.328125 267.367188 C 144.847656 267.28125 147.363281 267.121094 149.875 266.890625 C 152.386719 266.65625 154.886719 266.355469 157.382812 265.976562 C 159.875 265.601562 162.355469 265.15625 164.824219 264.636719 C 167.292969 264.117188 169.746094 263.527344 172.179688 262.867188 C 174.613281 262.207031 177.027344 261.480469 179.417969 260.679688 C 181.808594 259.882812 184.175781 259.015625 186.519531 258.082031 C 188.863281 257.144531 191.175781 256.144531 193.460938 255.078125 C 195.742188 254.007812 197.996094 252.875 200.214844 251.675781 C 202.433594 250.480469 204.617188 249.21875 206.765625 247.894531 C 208.910156 246.574219 211.019531 245.1875 213.085938 243.742188 C 215.152344 242.300781 217.175781 240.796875 219.15625 239.234375 C 221.136719 237.675781 223.070312 236.058594 224.960938 234.382812 C 226.847656 232.710938 228.683594 230.988281 230.472656 229.207031 C 232.261719 227.429688 233.996094 225.601562 235.679688 223.722656 C 237.363281 221.847656 238.992188 219.921875 240.5625 217.949219 C 242.136719 215.976562 243.648438 213.960938 245.105469 211.902344 C 246.5625 209.84375 247.957031 207.746094 249.292969 205.605469 C 250.628906 203.464844 251.902344 201.289062 253.113281 199.078125 C 254.320312 196.863281 255.46875 194.617188 256.546875 192.339844 C 257.628906 190.0625 258.644531 187.753906 259.589844 185.417969 C 260.539062 183.078125 261.417969 180.71875 262.230469 178.328125 C 263.042969 175.941406 263.785156 173.535156 264.460938 171.101562 C 265.132812 168.671875 265.734375 166.226562 266.269531 163.761719 C 266.800781 161.292969 267.261719 158.816406 267.652344 156.324219 C 268.042969 153.832031 268.359375 151.332031 268.605469 148.824219 C 268.851562 146.3125 269.023438 143.796875 269.125 141.277344 C 269.226562 138.757812 269.257812 136.238281 269.210938 133.714844 C 269.167969 131.195312 269.050781 128.675781 268.863281 126.160156 C 268.675781 123.644531 268.414062 121.140625 268.078125 118.640625 C 267.746094 116.140625 267.339844 113.652344 266.863281 111.175781 C 266.390625 108.699219 265.839844 106.238281 265.222656 103.792969 C 264.605469 101.347656 263.917969 98.921875 263.160156 96.515625 C 262.402344 94.109375 261.574219 91.730469 260.679688 89.371094 C 259.785156 87.015625 258.824219 84.683594 257.796875 82.382812 C 256.765625 80.078125 255.671875 77.808594 254.511719 75.566406 C 253.351562 73.328125 252.128906 71.125 250.84375 68.957031 C 249.558594 66.785156 248.210938 64.65625 246.800781 62.5625 C 245.390625 60.472656 243.921875 58.421875 242.394531 56.417969 C 240.867188 54.410156 239.285156 52.449219 237.644531 50.53125 C 236.003906 48.617188 234.3125 46.75 232.5625 44.929688 C 230.816406 43.113281 229.019531 41.347656 227.167969 39.628906 C 225.320312 37.914062 223.421875 36.253906 221.476562 34.648438 C 219.535156 33.042969 217.542969 31.496094 215.511719 30.003906 C 213.476562 28.511719 211.402344 27.082031 209.285156 25.710938 C 207.167969 24.339844 205.015625 23.027344 202.824219 21.78125 C 200.632812 20.535156 198.40625 19.351562 196.144531 18.230469 C 193.886719 17.109375 191.597656 16.058594 189.277344 15.070312 C 186.957031 14.082031 184.609375 13.160156 182.234375 12.308594 C 179.863281 11.457031 177.464844 10.671875 175.046875 9.957031 C 172.628906 9.242188 170.191406 8.597656 167.734375 8.023438 C 165.28125 7.449219 162.808594 6.945312 160.324219 6.511719 C 157.839844 6.082031 155.347656 5.71875 152.839844 5.429688 C 150.335938 5.140625 147.824219 4.925781 145.304688 4.78125 C 142.789062 4.636719 140.269531 4.566406 137.746094 4.566406 Z M 137.746094 255.015625 C 132.152344 255.011719 126.585938 254.613281 121.046875 253.820312 C 115.511719 253.027344 110.054688 251.851562 104.683594 250.285156 C 99.3125 248.722656 94.078125 246.789062 88.980469 244.484375 C 83.886719 242.175781 78.976562 239.523438 74.253906 236.523438 C 73.230469 235.875 72.113281 235.550781 70.902344 235.550781 C 70.226562 235.550781 69.566406 235.660156 68.921875 235.875 L 22.414062 251.375 L 37.921875 204.875 C 38.214844 203.984375 38.308594 203.070312 38.195312 202.136719 C 38.082031 201.203125 37.773438 200.339844 37.273438 199.542969 C 36.113281 197.703125 35 195.828125 33.941406 193.925781 C 32.882812 192.023438 31.878906 190.089844 30.925781 188.132812 C 29.972656 186.171875 29.074219 184.191406 28.230469 182.179688 C 27.386719 180.171875 26.597656 178.144531 25.867188 176.089844 C 25.132812 174.039062 24.460938 171.96875 23.839844 169.882812 C 23.222656 167.792969 22.660156 165.6875 22.160156 163.570312 C 21.65625 161.449219 21.210938 159.320312 20.828125 157.175781 C 20.441406 155.03125 20.113281 152.878906 19.847656 150.714844 C 19.582031 148.554688 19.375 146.386719 19.226562 144.214844 C 19.078125 142.039062 18.988281 139.863281 18.960938 137.6875 C 18.933594 135.507812 18.964844 133.332031 19.054688 131.15625 C 19.144531 128.980469 19.296875 126.808594 19.507812 124.640625 C 19.71875 122.472656 19.988281 120.308594 20.316406 118.15625 C 20.648438 116.003906 21.035156 113.863281 21.484375 111.730469 C 21.929688 109.597656 22.433594 107.480469 23 105.375 C 23.5625 103.273438 24.183594 101.183594 24.863281 99.113281 C 25.539062 97.046875 26.273438 94.996094 27.066406 92.964844 C 27.855469 90.9375 28.703125 88.929688 29.605469 86.945312 C 30.503906 84.964844 31.460938 83.007812 32.46875 81.078125 C 33.476562 79.144531 34.539062 77.246094 35.652344 75.371094 C 36.765625 73.5 37.929688 71.660156 39.144531 69.851562 C 40.359375 68.042969 41.621094 66.269531 42.933594 64.53125 C 44.246094 62.792969 45.605469 61.089844 47.011719 59.425781 C 48.414062 57.761719 49.867188 56.140625 51.359375 54.554688 C 52.855469 52.96875 54.394531 51.429688 55.972656 49.929688 C 57.550781 48.429688 59.171875 46.972656 60.832031 45.5625 C 62.492188 44.152344 64.1875 42.789062 65.921875 41.46875 C 67.65625 40.152344 69.425781 38.882812 71.230469 37.664062 C 73.035156 36.441406 74.871094 35.273438 76.738281 34.152344 C 78.609375 33.035156 80.507812 31.96875 82.433594 30.953125 C 84.359375 29.9375 86.316406 28.976562 88.296875 28.066406 C 90.273438 27.160156 92.277344 26.308594 94.304688 25.511719 C 96.332031 24.710938 98.378906 23.972656 100.449219 23.285156 C 102.515625 22.601562 104.601562 21.972656 106.703125 21.402344 C 108.804688 20.832031 110.921875 20.320312 113.050781 19.867188 C 115.183594 19.414062 117.324219 19.019531 119.476562 18.683594 C 121.628906 18.34375 123.789062 18.070312 125.953125 17.851562 C 128.121094 17.632812 130.292969 17.476562 132.46875 17.378906 C 134.644531 17.277344 136.824219 17.242188 139 17.261719 C 141.179688 17.285156 143.355469 17.363281 145.527344 17.503906 C 147.703125 17.648438 149.871094 17.847656 152.03125 18.109375 C 154.195312 18.367188 156.347656 18.6875 158.496094 19.066406 C 160.640625 19.445312 162.773438 19.882812 164.894531 20.378906 C 167.015625 20.875 169.121094 21.425781 171.210938 22.039062 C 173.300781 22.652344 175.375 23.320312 177.425781 24.046875 C 179.480469 24.769531 181.515625 25.550781 183.523438 26.390625 C 185.535156 27.226562 187.523438 28.117188 189.484375 29.066406 C 191.445312 30.011719 193.378906 31.011719 195.285156 32.0625 C 197.195312 33.117188 199.070312 34.222656 200.917969 35.375 C 202.761719 36.53125 204.574219 37.738281 206.355469 38.992188 C 208.136719 40.25 209.878906 41.554688 211.589844 42.90625 C 213.296875 44.257812 214.964844 45.652344 216.597656 47.097656 C 218.230469 48.539062 219.820312 50.027344 221.371094 51.558594 C 222.917969 53.089844 224.425781 54.660156 225.890625 56.273438 C 227.351562 57.886719 228.769531 59.539062 230.140625 61.230469 C 231.515625 62.921875 232.839844 64.652344 234.117188 66.414062 C 235.394531 68.179688 236.621094 69.976562 237.800781 71.808594 C 238.980469 73.640625 240.109375 75.503906 241.183594 77.398438 C 242.261719 79.292969 243.285156 81.214844 244.253906 83.164062 C 245.226562 85.113281 246.140625 87.089844 247.003906 89.089844 C 247.867188 91.089844 248.671875 93.113281 249.421875 95.15625 C 250.171875 97.199219 250.867188 99.265625 251.503906 101.347656 C 252.140625 103.429688 252.722656 105.53125 253.246094 107.644531 C 253.765625 109.757812 254.230469 111.886719 254.636719 114.027344 C 255.039062 116.167969 255.386719 118.316406 255.671875 120.476562 C 255.960938 122.636719 256.1875 124.800781 256.355469 126.972656 C 256.523438 129.144531 256.632812 131.320312 256.679688 133.496094 C 256.726562 135.675781 256.714844 137.851562 256.644531 140.027344 C 256.574219 142.207031 256.441406 144.378906 256.25 146.550781 C 256.0625 148.71875 255.8125 150.882812 255.5 153.039062 C 255.191406 155.195312 254.824219 157.339844 254.394531 159.476562 C 253.96875 161.613281 253.480469 163.734375 252.9375 165.84375 C 252.394531 167.953125 251.789062 170.042969 251.132812 172.121094 C 250.472656 174.195312 249.757812 176.253906 248.984375 178.289062 C 248.210938 180.328125 247.382812 182.339844 246.5 184.332031 C 245.617188 186.324219 244.679688 188.289062 243.6875 190.226562 C 242.699219 192.167969 241.65625 194.078125 240.558594 195.960938 C 239.460938 197.84375 238.316406 199.695312 237.117188 201.511719 C 235.917969 203.332031 234.671875 205.117188 233.375 206.867188 C 232.082031 208.617188 230.738281 210.332031 229.347656 212.007812 C 227.957031 213.6875 226.523438 215.324219 225.042969 216.921875 C 223.5625 218.519531 222.039062 220.074219 220.472656 221.589844 C 218.90625 223.105469 217.300781 224.574219 215.652344 226 C 214.007812 227.425781 212.324219 228.804688 210.601562 230.140625 C 208.878906 231.472656 207.121094 232.757812 205.328125 233.996094 C 203.535156 235.230469 201.707031 236.417969 199.851562 237.554688 C 197.992188 238.691406 196.101562 239.773438 194.1875 240.808594 C 192.269531 241.839844 190.324219 242.820312 188.351562 243.746094 C 186.378906 244.671875 184.382812 245.542969 182.363281 246.359375 C 180.34375 247.175781 178.304688 247.933594 176.242188 248.636719 C 174.179688 249.339844 172.101562 249.988281 170.003906 250.578125 C 167.910156 251.167969 165.796875 251.699219 163.671875 252.171875 C 161.542969 252.644531 159.40625 253.058594 157.257812 253.417969 C 155.109375 253.773438 152.953125 254.070312 150.785156 254.304688 C 148.621094 254.542969 146.453125 254.722656 144.277344 254.839844 C 142.101562 254.957031 139.925781 255.015625 137.746094 255.015625 Z M 87.65625 136.050781 C 87.65625 136.875 87.578125 137.6875 87.417969 138.496094 C 87.253906 139.300781 87.019531 140.085938 86.703125 140.84375 C 86.390625 141.605469 86.003906 142.324219 85.546875 143.007812 C 85.089844 143.691406 84.570312 144.324219 83.988281 144.90625 C 83.40625 145.488281 82.773438 146.007812 82.089844 146.464844 C 81.40625 146.921875 80.6875 147.304688 79.925781 147.621094 C 79.167969 147.9375 78.382812 148.171875 77.578125 148.332031 C 76.769531 148.492188 75.957031 148.574219 75.132812 148.574219 C 74.3125 148.574219 73.496094 148.492188 72.691406 148.332031 C 71.886719 148.171875 71.101562 147.9375 70.34375 147.621094 C 69.582031 147.304688 68.859375 146.921875 68.175781 146.464844 C 67.492188 146.007812 66.859375 145.488281 66.28125 144.90625 C 65.699219 144.324219 65.179688 143.691406 64.722656 143.007812 C 64.265625 142.324219 63.878906 141.605469 63.566406 140.84375 C 63.25 140.085938 63.011719 139.300781 62.851562 138.496094 C 62.691406 137.6875 62.613281 136.875 62.613281 136.050781 C 62.613281 135.230469 62.691406 134.414062 62.851562 133.609375 C 63.011719 132.800781 63.25 132.019531 63.566406 131.257812 C 63.878906 130.5 64.265625 129.777344 64.722656 129.09375 C 65.179688 128.410156 65.699219 127.777344 66.28125 127.195312 C 66.859375 126.617188 67.492188 126.097656 68.175781 125.640625 C 68.859375 125.183594 69.582031 124.796875 70.34375 124.484375 C 71.101562 124.167969 71.886719 123.929688 72.691406 123.769531 C 73.496094 123.609375 74.3125 123.53125 75.132812 123.53125 C 75.957031 123.53125 76.769531 123.609375 77.578125 123.769531 C 78.382812 123.929688 79.167969 124.167969 79.925781 124.484375 C 80.6875 124.796875 81.40625 125.183594 82.089844 125.640625 C 82.773438 126.097656 83.40625 126.617188 83.988281 127.195312 C 84.570312 127.777344 85.089844 128.410156 85.546875 129.09375 C 86.003906 129.777344 86.390625 130.5 86.703125 131.257812 C 87.019531 132.019531 87.253906 132.800781 87.417969 133.609375 C 87.578125 134.414062 87.65625 135.230469 87.65625 136.050781 Z M 150.269531 136.050781 C 150.269531 136.875 150.1875 137.6875 150.027344 138.496094 C 149.867188 139.300781 149.628906 140.085938 149.316406 140.84375 C 149 141.605469 148.617188 142.324219 148.160156 143.007812 C 147.703125 143.691406 147.183594 144.324219 146.601562 144.90625 C 146.019531 145.488281 145.386719 146.007812 144.703125 146.464844 C 144.019531 146.921875 143.296875 147.304688 142.539062 147.621094 C 141.777344 147.9375 140.996094 148.171875 140.191406 148.332031 C 139.382812 148.492188 138.570312 148.574219 137.746094 148.574219 C 136.925781 148.574219 136.109375 148.492188 135.304688 148.332031 C 134.496094 148.171875 133.714844 147.9375 132.953125 147.621094 C 132.195312 147.304688 131.472656 146.921875 130.789062 146.464844 C 130.105469 146.007812 129.472656 145.488281 128.890625 144.90625 C 128.308594 144.324219 127.792969 143.691406 127.335938 143.007812 C 126.878906 142.324219 126.492188 141.605469 126.175781 140.84375 C 125.863281 140.085938 125.625 139.300781 125.464844 138.496094 C 125.304688 137.6875 125.222656 136.875 125.222656 136.050781 C 125.222656 135.230469 125.304688 134.414062 125.464844 133.609375 C 125.625 132.800781 125.863281 132.019531 126.175781 131.257812 C 126.492188 130.5 126.878906 129.777344 127.335938 129.09375 C 127.792969 128.410156 128.308594 127.777344 128.890625 127.195312 C 129.472656 126.617188 130.105469 126.097656 130.789062 125.640625 C 131.472656 125.183594 132.195312 124.796875 132.953125 124.484375 C 133.714844 124.167969 134.496094 123.929688 135.304688 123.769531 C 136.109375 123.609375 136.925781 123.53125 137.746094 123.53125 C 138.570312 123.53125 139.382812 123.609375 140.191406 123.769531 C 140.996094 123.929688 141.777344 124.167969 142.539062 124.484375 C 143.296875 124.796875 144.019531 125.183594 144.703125 125.640625 C 145.386719 126.097656 146.019531 126.617188 146.601562 127.195312 C 147.183594 127.777344 147.703125 128.410156 148.160156 129.09375 C 148.617188 129.777344 149 130.5 149.316406 131.257812 C 149.628906 132.019531 149.867188 132.800781 150.027344 133.609375 C 150.1875 134.414062 150.269531 135.230469 150.269531 136.050781 Z M 212.882812 136.050781 C 212.882812 136.875 212.800781 137.6875 212.640625 138.496094 C 212.480469 139.300781 212.242188 140.085938 211.929688 140.84375 C 211.613281 141.605469 211.226562 142.324219 210.769531 143.007812 C 210.3125 143.691406 209.792969 144.324219 209.214844 144.90625 C 208.632812 145.488281 208 146.007812 207.316406 146.464844 C 206.632812 146.921875 205.910156 147.304688 205.152344 147.621094 C 204.390625 147.9375 203.609375 148.171875 202.800781 148.332031 C 201.996094 148.492188 201.179688 148.574219 200.359375 148.574219 C 199.535156 148.574219 198.722656 148.492188 197.914062 148.332031 C 197.109375 148.171875 196.324219 147.9375 195.566406 147.621094 C 194.808594 147.304688 194.085938 146.921875 193.402344 146.464844 C 192.71875 146.007812 192.085938 145.488281 191.503906 144.90625 C 190.921875 144.324219 190.402344 143.691406 189.945312 143.007812 C 189.488281 142.324219 189.105469 141.605469 188.789062 140.84375 C 188.476562 140.085938 188.238281 139.300781 188.078125 138.496094 C 187.917969 137.6875 187.835938 136.875 187.835938 136.050781 C 187.835938 135.230469 187.917969 134.414062 188.078125 133.609375 C 188.238281 132.800781 188.476562 132.019531 188.789062 131.257812 C 189.105469 130.5 189.488281 129.777344 189.945312 129.09375 C 190.402344 128.410156 190.921875 127.777344 191.503906 127.195312 C 192.085938 126.617188 192.71875 126.097656 193.402344 125.640625 C 194.085938 125.183594 194.808594 124.796875 195.566406 124.484375 C 196.324219 124.167969 197.109375 123.929688 197.914062 123.769531 C 198.722656 123.609375 199.535156 123.53125 200.359375 123.53125 C 201.179688 123.53125 201.996094 123.609375 202.800781 123.769531 C 203.609375 123.929688 204.390625 124.167969 205.152344 124.484375 C 205.910156 124.796875 206.632812 125.183594 207.316406 125.640625 C 208 126.097656 208.632812 126.617188 209.214844 127.195312 C 209.792969 127.777344 210.3125 128.410156 210.769531 129.09375 C 211.226562 129.777344 211.613281 130.5 211.929688 131.257812 C 212.242188 132.019531 212.480469 132.800781 212.640625 133.609375 C 212.800781 134.414062 212.882812 135.230469 212.882812 136.050781 Z M 212.882812 136.050781 " fill-opacity="1" fill-rule="nonzero"/></svg>