<svg xmlns="http://www.w3.org/2000/svg" xmlns:xlink="http://www.w3.org/1999/xlink" width="375" zoomAndPan="magnify" viewBox="0 0 281.25 608.999982" height="812" preserveAspectRatio="xMidYMid meet" version="1.0"><defs><clipPath id="eaa3dee03c"><path d="M 0 160 L 278 160 L 278 406.230469 L 0 406.230469 Z M 0 160 " clip-rule="nonzero"/></clipPath></defs><path fill="#ff3131" d="M 215.679688 145.3125 C 215.679688 166.058594 215.96875 186.804688 215.679688 207.550781 C 215.597656 208.757812 215.492188 209.957031 215.355469 211.15625 C 215.21875 212.355469 215.054688 213.554688 214.863281 214.746094 C 214.667969 215.9375 214.449219 217.125 214.199219 218.304688 C 213.953125 219.488281 213.675781 220.660156 213.371094 221.828125 C 213.066406 223 212.738281 224.160156 212.378906 225.3125 C 212.019531 226.464844 211.636719 227.609375 211.222656 228.742188 C 210.8125 229.878906 210.375 231.003906 209.910156 232.117188 C 209.445312 233.230469 208.953125 234.335938 208.4375 235.425781 C 207.917969 236.515625 207.375 237.59375 206.808594 238.660156 C 206.242188 239.726562 205.648438 240.777344 205.03125 241.816406 C 204.414062 242.855469 203.773438 243.875 203.109375 244.882812 C 202.445312 245.890625 201.757812 246.882812 201.042969 247.859375 C 200.332031 248.832031 199.597656 249.792969 198.84375 250.734375 C 198.085938 251.671875 197.308594 252.59375 196.507812 253.5 C 195.707031 254.402344 194.886719 255.289062 194.042969 256.15625 C 193.203125 257.019531 192.339844 257.863281 191.460938 258.691406 C 190.578125 259.515625 189.675781 260.320312 188.757812 261.101562 C 187.839844 261.882812 186.902344 262.644531 185.945312 263.382812 C 184.992188 264.121094 184.019531 264.835938 183.03125 265.53125 C 182.042969 266.222656 181.039062 266.894531 180.015625 267.539062 C 178.996094 268.183594 177.960938 268.804688 176.914062 269.402344 C 175.863281 270 174.800781 270.570312 173.722656 271.117188 C 172.648438 271.664062 171.558594 272.1875 170.457031 272.683594 C 169.359375 273.179688 168.246094 273.648438 167.125 274.089844 C 166 274.535156 164.867188 274.953125 163.726562 275.34375 C 162.582031 275.734375 161.429688 276.09375 160.273438 276.433594 C 159.113281 276.769531 157.945312 277.078125 156.769531 277.359375 C 155.597656 277.640625 154.417969 277.890625 153.230469 278.117188 C 152.046875 278.34375 150.855469 278.542969 149.660156 278.710938 C 148.464844 278.882812 147.265625 279.023438 146.0625 279.136719 C 144.859375 279.25 143.65625 279.335938 142.449219 279.390625 C 141.246094 279.449219 140.039062 279.476562 138.832031 279.476562 C 137.625 279.476562 136.417969 279.449219 135.210938 279.390625 C 134.003906 279.335938 132.800781 279.25 131.597656 279.136719 C 130.398438 279.023438 129.199219 278.882812 128.003906 278.710938 C 126.808594 278.542969 125.617188 278.34375 124.429688 278.117188 C 123.246094 277.890625 122.066406 277.640625 120.890625 277.359375 C 119.714844 277.078125 118.550781 276.769531 117.390625 276.433594 C 116.230469 276.09375 115.078125 275.734375 113.9375 275.34375 C 112.792969 274.953125 111.660156 274.535156 110.539062 274.089844 C 109.414062 273.648438 108.304688 273.179688 107.203125 272.683594 C 106.101562 272.1875 105.015625 271.664062 103.9375 271.117188 C 102.859375 270.570312 101.796875 270 100.75 269.402344 C 99.699219 268.804688 98.664062 268.183594 97.644531 267.539062 C 96.625 266.894531 95.621094 266.222656 94.632812 265.53125 C 93.640625 264.835938 92.671875 264.121094 91.714844 263.382812 C 90.761719 262.644531 89.824219 261.882812 88.902344 261.101562 C 87.984375 260.320312 87.085938 259.515625 86.203125 258.691406 C 85.320312 257.863281 84.460938 257.019531 83.617188 256.15625 C 82.777344 255.289062 81.957031 254.402344 81.15625 253.5 C 80.355469 252.59375 79.578125 251.671875 78.820312 250.734375 C 78.0625 249.792969 77.328125 248.832031 76.617188 247.859375 C 75.90625 246.882812 75.21875 245.890625 74.550781 244.882812 C 73.886719 243.875 73.246094 242.855469 72.628906 241.816406 C 72.011719 240.777344 71.421875 239.726562 70.851562 238.660156 C 70.285156 237.59375 69.742188 236.515625 69.226562 235.425781 C 68.710938 234.335938 68.21875 233.230469 67.753906 232.117188 C 67.289062 231.003906 66.851562 229.878906 66.4375 228.742188 C 66.027344 227.609375 65.640625 226.464844 65.28125 225.3125 C 64.925781 224.160156 64.59375 223 64.289062 221.828125 C 63.988281 220.660156 63.710938 219.488281 63.460938 218.304688 C 63.214844 217.125 62.992188 215.9375 62.800781 214.746094 C 62.609375 213.554688 62.445312 212.355469 62.308594 211.15625 C 62.171875 209.957031 62.0625 208.757812 61.984375 207.550781 C 61.566406 165.832031 61.566406 124.003906 61.984375 82.0625 C 62.035156 80.046875 62.164062 78.039062 62.375 76.03125 C 62.585938 74.027344 62.875 72.035156 63.238281 70.050781 C 63.605469 68.070312 64.050781 66.105469 64.570312 64.15625 C 65.089844 62.210938 65.6875 60.285156 66.359375 58.386719 C 67.03125 56.484375 67.777344 54.613281 68.59375 52.769531 C 69.414062 50.929688 70.300781 49.121094 71.261719 47.347656 C 72.222656 45.578125 73.253906 43.84375 74.347656 42.152344 C 75.445312 40.460938 76.605469 38.816406 77.832031 37.214844 C 79.058594 35.617188 80.34375 34.066406 81.691406 32.566406 C 83.039062 31.066406 84.441406 29.625 85.902344 28.234375 C 87.363281 26.84375 88.878906 25.515625 90.445312 24.246094 C 92.007812 22.976562 93.621094 21.769531 95.28125 20.625 C 96.941406 19.480469 98.644531 18.40625 100.386719 17.394531 C 102.132812 16.382812 103.914062 15.445312 105.734375 14.574219 C 107.550781 13.703125 109.402344 12.90625 111.28125 12.183594 C 113.164062 11.457031 115.070312 10.808594 117 10.230469 C 118.933594 9.65625 120.886719 9.160156 122.855469 8.738281 C 124.828125 8.316406 126.8125 7.972656 128.808594 7.707031 C 130.808594 7.4375 132.8125 7.25 134.828125 7.144531 C 136.839844 7.035156 138.855469 7.003906 140.867188 7.054688 C 142.882812 7.105469 144.894531 7.234375 146.898438 7.441406 C 148.90625 7.648438 150.898438 7.933594 152.882812 8.296875 C 154.863281 8.660156 156.828125 9.101562 158.777344 9.621094 C 160.726562 10.140625 162.648438 10.734375 164.550781 11.402344 C 166.453125 12.070312 168.324219 12.816406 170.167969 13.632812 C 172.011719 14.449219 173.820312 15.335938 175.59375 16.292969 C 177.367188 17.253906 179.097656 18.277344 180.792969 19.375 C 182.484375 20.46875 184.132812 21.628906 185.734375 22.851562 C 187.335938 24.074219 188.886719 25.359375 190.386719 26.707031 C 191.886719 28.050781 193.335938 29.453125 194.726562 30.914062 C 196.117188 32.371094 197.445312 33.882812 198.71875 35.445312 C 199.992188 37.011719 201.199219 38.621094 202.34375 40.28125 C 204.515625 43.390625 206.4375 46.644531 208.109375 50.046875 C 209.78125 53.449219 211.1875 56.957031 212.320312 60.574219 C 213.457031 64.191406 214.308594 67.875 214.878906 71.621094 C 215.449219 75.367188 215.734375 79.136719 215.726562 82.929688 C 215.726562 103.820312 215.679688 124.566406 215.679688 145.3125 Z M 215.679688 145.3125 " fill-opacity="1" fill-rule="nonzero"/><g clip-path="url(#eaa3dee03c)"><path fill="#ff3131" d="M 154.691406 343.824219 L 154.691406 374.148438 C 157.210938 374.554688 159.746094 374.824219 162.296875 374.964844 C 177.796875 374.964844 193.246094 374.964844 208.746094 374.964844 C 211.984375 374.875 215.195312 375.128906 218.375 375.734375 C 219.296875 375.890625 220.195312 376.128906 221.074219 376.449219 C 221.953125 376.769531 222.796875 377.164062 223.601562 377.636719 C 224.410156 378.109375 225.167969 378.652344 225.875 379.261719 C 226.582031 379.871094 227.230469 380.542969 227.816406 381.269531 C 228.40625 381.996094 228.921875 382.769531 229.367188 383.59375 C 229.8125 384.414062 230.183594 385.269531 230.472656 386.15625 C 230.765625 387.046875 230.972656 387.953125 231.101562 388.878906 C 231.226562 389.804688 231.269531 390.734375 231.226562 391.667969 C 231.140625 392.589844 230.972656 393.496094 230.730469 394.386719 C 230.484375 395.28125 230.164062 396.144531 229.769531 396.980469 C 229.378906 397.816406 228.914062 398.613281 228.382812 399.371094 C 227.851562 400.128906 227.257812 400.832031 226.605469 401.488281 C 225.949219 402.140625 225.246094 402.734375 224.488281 403.265625 C 223.730469 403.796875 222.933594 404.261719 222.097656 404.652344 C 221.261719 405.046875 220.398438 405.367188 219.503906 405.613281 C 218.613281 405.855469 217.707031 406.023438 216.785156 406.109375 C 214.476562 406.253906 212.164062 406.253906 209.855469 406.109375 C 162.585938 406.109375 115.15625 406.109375 67.566406 406.109375 C 64.933594 406.324219 62.304688 406.324219 59.671875 406.109375 C 58.8125 405.953125 57.96875 405.730469 57.144531 405.4375 C 56.320312 405.140625 55.523438 404.78125 54.757812 404.359375 C 53.992188 403.933594 53.265625 403.449219 52.582031 402.90625 C 51.894531 402.359375 51.257812 401.765625 50.667969 401.117188 C 50.082031 400.46875 49.550781 399.777344 49.074219 399.039062 C 48.601562 398.304688 48.191406 397.535156 47.84375 396.730469 C 47.496094 395.925781 47.214844 395.101562 47.003906 394.25 C 46.792969 393.402344 46.648438 392.542969 46.578125 391.667969 C 46.527344 390.761719 46.558594 389.859375 46.667969 388.957031 C 46.777344 388.058594 46.964844 387.171875 47.234375 386.304688 C 47.5 385.4375 47.84375 384.601562 48.257812 383.792969 C 48.675781 382.988281 49.160156 382.222656 49.710938 381.503906 C 50.261719 380.78125 50.875 380.117188 51.542969 379.503906 C 52.214844 378.894531 52.933594 378.34375 53.703125 377.859375 C 54.46875 377.378906 55.273438 376.964844 56.117188 376.625 C 56.957031 376.285156 57.820312 376.019531 58.710938 375.832031 C 61.882812 375.164062 65.09375 374.875 68.335938 374.964844 C 82.777344 374.964844 97.21875 374.964844 111.660156 374.964844 L 122.054688 374.964844 L 122.054688 344.398438 C 113.246094 342.1875 104.488281 340.695312 96.160156 337.804688 C 47.15625 320.863281 16.351562 286.6875 3.644531 236.191406 C 2.019531 229.453125 1.121094 222.617188 0.945312 215.6875 C 0.417969 202.496094 0.371094 189.308594 0.609375 176.117188 C 0.59375 175.113281 0.675781 174.117188 0.859375 173.128906 C 1.039062 172.140625 1.3125 171.175781 1.683594 170.242188 C 2.054688 169.308594 2.511719 168.417969 3.054688 167.574219 C 3.601562 166.730469 4.222656 165.945312 4.921875 165.226562 C 5.621094 164.503906 6.386719 163.855469 7.214844 163.285156 C 8.039062 162.714844 8.914062 162.226562 9.835938 161.828125 C 10.757812 161.429688 11.710938 161.125 12.695312 160.914062 C 13.675781 160.699219 14.671875 160.585938 15.675781 160.570312 C 16.683594 160.554688 17.679688 160.636719 18.667969 160.816406 C 19.65625 161 20.617188 161.273438 21.550781 161.644531 C 22.488281 162.015625 23.375 162.472656 24.222656 163.015625 C 25.066406 163.5625 25.847656 164.183594 26.570312 164.882812 C 27.292969 165.582031 27.9375 166.347656 28.511719 167.175781 C 29.082031 168 29.566406 168.875 29.96875 169.796875 C 30.367188 170.71875 30.671875 171.671875 30.882812 172.65625 C 31.09375 173.636719 31.207031 174.632812 31.222656 175.636719 C 31.800781 186.804688 31.222656 198.019531 31.5625 209.332031 C 32.570312 249.71875 51.972656 279.320312 85.808594 299.921875 C 88.382812 301.394531 91.007812 302.757812 93.695312 304.011719 C 96.378906 305.265625 99.113281 306.40625 101.894531 307.429688 C 104.671875 308.457031 107.492188 309.367188 110.347656 310.15625 C 113.203125 310.945312 116.085938 311.617188 119 312.167969 C 121.910156 312.71875 124.839844 313.144531 127.789062 313.453125 C 130.734375 313.757812 133.691406 313.941406 136.652344 314 C 139.617188 314.058594 142.574219 313.996094 145.53125 313.808594 C 148.492188 313.621094 151.433594 313.3125 154.367188 312.878906 C 157.296875 312.445312 160.207031 311.894531 163.09375 311.21875 C 165.976562 310.542969 168.828125 309.75 171.648438 308.835938 C 174.46875 307.921875 177.246094 306.894531 179.976562 305.75 C 182.710938 304.605469 185.390625 303.347656 188.019531 301.980469 C 190.648438 300.613281 193.21875 299.136719 195.722656 297.554688 C 198.226562 295.972656 200.664062 294.289062 203.027344 292.503906 C 205.394531 290.71875 207.679688 288.835938 209.890625 286.863281 C 212.097656 284.886719 214.21875 282.820312 216.257812 280.667969 C 218.605469 278.292969 220.828125 275.808594 222.933594 273.214844 C 225.039062 270.625 227.015625 267.933594 228.859375 265.152344 C 230.703125 262.367188 232.410156 259.5 233.972656 256.550781 C 235.539062 253.597656 236.957031 250.582031 238.230469 247.492188 C 239.503906 244.40625 240.621094 241.261719 241.589844 238.066406 C 242.554688 234.871094 243.367188 231.632812 244.019531 228.359375 C 244.671875 225.082031 245.164062 221.785156 245.496094 218.460938 C 245.828125 215.136719 245.996094 211.804688 246.003906 208.464844 C 246.003906 199.273438 246.003906 190.03125 246.003906 180.789062 C 245.914062 178.15625 246.089844 175.539062 246.535156 172.941406 C 246.707031 172.054688 246.957031 171.191406 247.28125 170.351562 C 247.609375 169.511719 248.007812 168.703125 248.476562 167.933594 C 248.945312 167.164062 249.476562 166.441406 250.074219 165.765625 C 250.671875 165.085938 251.324219 164.46875 252.03125 163.910156 C 252.738281 163.347656 253.488281 162.855469 254.285156 162.425781 C 255.078125 162 255.90625 161.644531 256.761719 161.367188 C 257.621094 161.085938 258.496094 160.882812 259.390625 160.757812 C 260.28125 160.632812 261.179688 160.585938 262.082031 160.621094 C 262.992188 160.617188 263.890625 160.699219 264.785156 160.867188 C 265.679688 161.035156 266.546875 161.285156 267.394531 161.621094 C 268.242188 161.953125 269.046875 162.359375 269.816406 162.84375 C 270.585938 163.332031 271.300781 163.882812 271.964844 164.503906 C 272.632812 165.125 273.230469 165.800781 273.769531 166.535156 C 274.304688 167.265625 274.769531 168.042969 275.160156 168.867188 C 275.546875 169.6875 275.859375 170.539062 276.085938 171.417969 C 276.316406 172.296875 276.460938 173.191406 276.523438 174.097656 C 280.324219 225.023438 272.238281 272.050781 231.902344 308.492188 C 226.933594 313.070312 221.65625 317.257812 216.066406 321.050781 C 210.480469 324.84375 204.640625 328.203125 198.550781 331.125 C 192.460938 334.050781 186.191406 336.507812 179.734375 338.5 C 173.28125 340.488281 166.714844 341.992188 160.035156 343.003906 C 158.640625 343.050781 157.050781 343.535156 154.691406 343.824219 Z M 154.691406 343.824219 " fill-opacity="1" fill-rule="nonzero"/></g></svg>