<svg xmlns="http://www.w3.org/2000/svg" xmlns:xlink="http://www.w3.org/1999/xlink" width="375" zoomAndPan="magnify" viewBox="0 0 281.25 608.999982" height="812" preserveAspectRatio="xMidYMid meet" version="1.0"><path fill="#000000" d="M 215.679688 145.183594 C 215.679688 165.910156 215.96875 186.640625 215.679688 207.367188 C 215.597656 208.570312 215.492188 209.769531 215.355469 210.96875 C 215.21875 212.167969 215.054688 213.363281 214.863281 214.554688 C 214.667969 215.746094 214.449219 216.929688 214.199219 218.109375 C 213.953125 219.292969 213.675781 220.464844 213.371094 221.632812 C 213.066406 222.800781 212.738281 223.960938 212.378906 225.113281 C 212.019531 226.265625 211.636719 227.40625 211.222656 228.539062 C 210.8125 229.675781 210.375 230.796875 209.910156 231.910156 C 209.445312 233.023438 208.953125 234.125 208.4375 235.214844 C 207.917969 236.304688 207.375 237.382812 206.808594 238.449219 C 206.242188 239.511719 205.648438 240.5625 205.03125 241.601562 C 204.414062 242.636719 203.773438 243.660156 203.109375 244.667969 C 202.445312 245.671875 201.757812 246.664062 201.042969 247.636719 C 200.332031 248.613281 199.597656 249.570312 198.84375 250.507812 C 198.085938 251.449219 197.308594 252.371094 196.507812 253.273438 C 195.707031 254.175781 194.886719 255.0625 194.042969 255.925781 C 193.203125 256.792969 192.339844 257.636719 191.460938 258.460938 C 190.578125 259.285156 189.675781 260.085938 188.757812 260.871094 C 187.839844 261.652344 186.902344 262.410156 185.945312 263.148438 C 184.992188 263.886719 184.019531 264.601562 183.03125 265.292969 C 182.042969 265.988281 181.039062 266.65625 180.015625 267.300781 C 178.996094 267.945312 177.960938 268.566406 176.914062 269.164062 C 175.863281 269.757812 174.800781 270.332031 173.722656 270.878906 C 172.648438 271.421875 171.558594 271.945312 170.457031 272.441406 C 169.359375 272.933594 168.246094 273.40625 167.125 273.847656 C 166 274.289062 164.867188 274.707031 163.726562 275.097656 C 162.582031 275.488281 161.429688 275.851562 160.273438 276.1875 C 159.113281 276.519531 157.945312 276.828125 156.769531 277.109375 C 155.597656 277.390625 154.417969 277.644531 153.230469 277.871094 C 152.046875 278.097656 150.855469 278.292969 149.660156 278.464844 C 148.464844 278.632812 147.265625 278.773438 146.0625 278.886719 C 144.859375 279 143.65625 279.085938 142.449219 279.140625 C 141.246094 279.199219 140.039062 279.226562 138.832031 279.226562 C 137.625 279.226562 136.417969 279.199219 135.210938 279.140625 C 134.003906 279.085938 132.800781 279 131.597656 278.886719 C 130.398438 278.773438 129.199219 278.632812 128.003906 278.464844 C 126.808594 278.292969 125.617188 278.097656 124.429688 277.871094 C 123.246094 277.644531 122.066406 277.390625 120.890625 277.109375 C 119.714844 276.828125 118.550781 276.523438 117.390625 276.1875 C 116.230469 275.851562 115.078125 275.488281 113.9375 275.097656 C 112.792969 274.707031 111.660156 274.289062 110.539062 273.847656 C 109.414062 273.40625 108.304688 272.933594 107.203125 272.441406 C 106.101562 271.945312 105.015625 271.421875 103.9375 270.878906 C 102.859375 270.332031 101.796875 269.757812 100.75 269.164062 C 99.699219 268.566406 98.664062 267.945312 97.644531 267.300781 C 96.625 266.65625 95.621094 265.988281 94.632812 265.292969 C 93.640625 264.601562 92.671875 263.886719 91.714844 263.148438 C 90.761719 262.410156 89.824219 261.652344 88.902344 260.871094 C 87.984375 260.085938 87.085938 259.285156 86.203125 258.460938 C 85.320312 257.636719 84.460938 256.792969 83.617188 255.925781 C 82.777344 255.0625 81.957031 254.175781 81.15625 253.273438 C 80.355469 252.371094 79.578125 251.449219 78.820312 250.507812 C 78.0625 249.570312 77.328125 248.613281 76.617188 247.636719 C 75.90625 246.664062 75.21875 245.671875 74.550781 244.667969 C 73.886719 243.660156 73.246094 242.636719 72.628906 241.601562 C 72.011719 240.5625 71.421875 239.511719 70.851562 238.449219 C 70.285156 237.382812 69.742188 236.304688 69.226562 235.214844 C 68.710938 234.125 68.21875 233.023438 67.753906 231.910156 C 67.289062 230.796875 66.851562 229.675781 66.4375 228.539062 C 66.027344 227.40625 65.640625 226.265625 65.28125 225.113281 C 64.925781 223.960938 64.59375 222.800781 64.289062 221.632812 C 63.988281 220.464844 63.710938 219.292969 63.460938 218.109375 C 63.214844 216.929688 62.992188 215.746094 62.800781 214.554688 C 62.609375 213.363281 62.445312 212.167969 62.308594 210.96875 C 62.171875 209.769531 62.0625 208.570312 61.984375 207.367188 C 61.566406 165.6875 61.566406 123.894531 61.984375 81.988281 C 62.035156 79.976562 62.164062 77.96875 62.375 75.964844 C 62.585938 73.960938 62.875 71.96875 63.238281 69.988281 C 63.605469 68.007812 64.050781 66.046875 64.570312 64.101562 C 65.089844 62.15625 65.6875 60.234375 66.359375 58.332031 C 67.03125 56.433594 67.777344 54.566406 68.59375 52.726562 C 69.414062 50.882812 70.300781 49.078125 71.261719 47.308594 C 72.222656 45.539062 73.253906 43.808594 74.347656 42.117188 C 75.445312 40.425781 76.605469 38.78125 77.832031 37.183594 C 79.058594 35.585938 80.34375 34.035156 81.691406 32.539062 C 83.039062 31.039062 84.441406 29.597656 85.902344 28.210938 C 87.363281 26.820312 88.878906 25.492188 90.445312 24.222656 C 92.007812 22.957031 93.621094 21.75 95.28125 20.605469 C 96.941406 19.464844 98.644531 18.390625 100.386719 17.378906 C 102.132812 16.371094 103.914062 15.429688 105.734375 14.5625 C 107.550781 13.691406 109.402344 12.894531 111.28125 12.171875 C 113.164062 11.449219 115.070312 10.796875 117 10.222656 C 118.933594 9.648438 120.886719 9.152344 122.855469 8.730469 C 124.828125 8.308594 126.8125 7.964844 128.808594 7.699219 C 130.808594 7.433594 132.8125 7.246094 134.828125 7.136719 C 136.839844 7.027344 138.855469 7 140.867188 7.050781 C 142.882812 7.097656 144.894531 7.226562 146.898438 7.433594 C 148.90625 7.640625 150.898438 7.925781 152.882812 8.289062 C 154.863281 8.65625 156.828125 9.09375 158.777344 9.613281 C 160.726562 10.132812 162.648438 10.722656 164.550781 11.394531 C 166.453125 12.0625 168.324219 12.804688 170.167969 13.621094 C 172.011719 14.4375 173.820312 15.324219 175.59375 16.28125 C 177.367188 17.238281 179.097656 18.261719 180.792969 19.355469 C 182.484375 20.449219 184.132812 21.609375 185.734375 22.832031 C 187.335938 24.054688 188.886719 25.335938 190.386719 26.683594 C 191.886719 28.027344 193.335938 29.429688 194.726562 30.886719 C 196.117188 32.34375 197.445312 33.855469 198.71875 35.417969 C 199.992188 36.980469 201.199219 38.589844 202.34375 40.246094 C 204.515625 43.351562 206.4375 46.601562 208.109375 50 C 209.78125 53.402344 211.1875 56.90625 212.320312 60.519531 C 213.457031 64.132812 214.308594 67.8125 214.878906 71.558594 C 215.449219 75.300781 215.734375 79.066406 215.726562 82.855469 C 215.726562 103.726562 215.679688 124.457031 215.679688 145.183594 Z M 215.679688 145.183594 " fill-opacity="1" fill-rule="nonzero"/><path fill="#000000" d="M 154.691406 343.515625 L 154.691406 373.8125 C 157.210938 374.21875 159.746094 374.492188 162.296875 374.632812 C 177.796875 374.632812 193.246094 374.632812 208.746094 374.632812 C 211.984375 374.539062 215.195312 374.796875 218.375 375.402344 C 219.296875 375.558594 220.195312 375.796875 221.074219 376.113281 C 221.953125 376.433594 222.796875 376.828125 223.601562 377.300781 C 224.410156 377.773438 225.167969 378.316406 225.875 378.925781 C 226.582031 379.535156 227.230469 380.203125 227.816406 380.929688 C 228.40625 381.65625 228.921875 382.429688 229.367188 383.25 C 229.8125 384.070312 230.183594 384.925781 230.472656 385.8125 C 230.765625 386.699219 230.972656 387.605469 231.101562 388.53125 C 231.226562 389.457031 231.269531 390.386719 231.226562 391.320312 C 231.140625 392.238281 230.972656 393.144531 230.730469 394.035156 C 230.484375 394.925781 230.164062 395.792969 229.769531 396.628906 C 229.378906 397.464844 228.914062 398.257812 228.382812 399.015625 C 227.851562 399.769531 227.257812 400.476562 226.605469 401.128906 C 225.949219 401.78125 225.246094 402.375 224.488281 402.90625 C 223.730469 403.4375 222.933594 403.898438 222.097656 404.292969 C 221.261719 404.6875 220.398438 405.007812 219.503906 405.25 C 218.613281 405.496094 217.707031 405.660156 216.785156 405.746094 C 214.476562 405.890625 212.164062 405.890625 209.855469 405.746094 C 162.585938 405.746094 115.15625 405.746094 67.566406 405.746094 C 64.933594 405.964844 62.304688 405.964844 59.671875 405.746094 C 58.8125 405.59375 57.96875 405.367188 57.144531 405.074219 C 56.320312 404.78125 55.523438 404.421875 54.757812 403.996094 C 53.992188 403.574219 53.265625 403.089844 52.582031 402.546875 C 51.894531 402.003906 51.257812 401.40625 50.667969 400.757812 C 50.082031 400.109375 49.550781 399.417969 49.074219 398.683594 C 48.601562 397.949219 48.191406 397.179688 47.84375 396.378906 C 47.496094 395.574219 47.214844 394.75 47.003906 393.902344 C 46.792969 393.050781 46.648438 392.191406 46.578125 391.320312 C 46.527344 390.414062 46.558594 389.511719 46.667969 388.613281 C 46.777344 387.710938 46.964844 386.828125 47.234375 385.960938 C 47.5 385.09375 47.84375 384.257812 48.257812 383.453125 C 48.675781 382.644531 49.160156 381.882812 49.710938 381.164062 C 50.261719 380.445312 50.875 379.777344 51.542969 379.167969 C 52.214844 378.554688 52.933594 378.007812 53.703125 377.523438 C 54.46875 377.039062 55.273438 376.628906 56.117188 376.289062 C 56.957031 375.949219 57.820312 375.683594 58.710938 375.496094 C 61.882812 374.832031 65.09375 374.542969 68.335938 374.632812 C 82.777344 374.632812 97.21875 374.632812 111.660156 374.632812 L 122.054688 374.632812 L 122.054688 344.09375 C 113.246094 341.882812 104.488281 340.390625 96.160156 337.503906 C 47.15625 320.574219 16.351562 286.429688 3.644531 235.980469 C 2.019531 229.246094 1.121094 222.417969 0.945312 215.496094 C 0.417969 202.316406 0.371094 189.140625 0.609375 175.960938 C 0.59375 174.957031 0.675781 173.960938 0.859375 172.972656 C 1.039062 171.984375 1.3125 171.023438 1.683594 170.089844 C 2.054688 169.15625 2.511719 168.269531 3.054688 167.425781 C 3.601562 166.582031 4.222656 165.800781 4.921875 165.078125 C 5.621094 164.355469 6.386719 163.710938 7.214844 163.140625 C 8.039062 162.570312 8.914062 162.082031 9.835938 161.683594 C 10.757812 161.285156 11.710938 160.980469 12.695312 160.769531 C 13.675781 160.558594 14.671875 160.445312 15.675781 160.429688 C 16.683594 160.414062 17.679688 160.496094 18.667969 160.675781 C 19.65625 160.855469 20.617188 161.132812 21.550781 161.5 C 22.488281 161.871094 23.375 162.328125 24.222656 162.871094 C 25.066406 163.417969 25.847656 164.039062 26.570312 164.738281 C 27.292969 165.4375 27.9375 166.199219 28.511719 167.023438 C 29.082031 167.851562 29.566406 168.726562 29.96875 169.648438 C 30.367188 170.570312 30.671875 171.519531 30.882812 172.503906 C 31.09375 173.484375 31.207031 174.476562 31.222656 175.480469 C 31.800781 186.640625 31.222656 197.84375 31.5625 209.144531 C 32.570312 249.496094 51.972656 279.074219 85.808594 299.65625 C 88.382812 301.128906 91.007812 302.488281 93.695312 303.742188 C 96.378906 304.996094 99.113281 306.132812 101.894531 307.15625 C 104.671875 308.183594 107.492188 309.089844 110.347656 309.878906 C 113.203125 310.671875 116.085938 311.339844 119 311.890625 C 121.910156 312.441406 124.839844 312.867188 127.789062 313.171875 C 130.734375 313.480469 133.691406 313.660156 136.652344 313.722656 C 139.617188 313.78125 142.574219 313.71875 145.53125 313.53125 C 148.492188 313.34375 151.433594 313.035156 154.367188 312.601562 C 157.296875 312.167969 160.207031 311.613281 163.09375 310.941406 C 165.976562 310.265625 168.828125 309.472656 171.648438 308.558594 C 174.46875 307.648438 177.246094 306.621094 179.976562 305.476562 C 182.710938 304.332031 185.390625 303.078125 188.019531 301.710938 C 190.648438 300.34375 193.21875 298.871094 195.722656 297.289062 C 198.226562 295.707031 200.664062 294.027344 203.027344 292.242188 C 205.394531 290.460938 207.679688 288.582031 209.890625 286.605469 C 212.097656 284.632812 214.21875 282.570312 216.257812 280.417969 C 218.605469 278.046875 220.828125 275.5625 222.933594 272.972656 C 225.039062 270.382812 227.015625 267.695312 228.859375 264.914062 C 230.703125 262.132812 232.410156 259.269531 233.972656 256.320312 C 235.539062 253.375 236.957031 250.359375 238.230469 247.273438 C 239.503906 244.1875 240.621094 241.046875 241.589844 237.855469 C 242.554688 234.660156 243.367188 231.425781 244.019531 228.15625 C 244.671875 224.882812 245.164062 221.585938 245.496094 218.265625 C 245.828125 214.945312 245.996094 211.617188 246.003906 208.28125 C 246.003906 199.09375 246.003906 189.859375 246.003906 180.628906 C 245.914062 177.996094 246.089844 175.382812 246.535156 172.789062 C 246.707031 171.902344 246.957031 171.039062 247.28125 170.199219 C 247.609375 169.359375 248.007812 168.554688 248.476562 167.785156 C 248.945312 167.015625 249.476562 166.292969 250.074219 165.617188 C 250.671875 164.941406 251.324219 164.324219 252.03125 163.761719 C 252.738281 163.203125 253.488281 162.710938 254.285156 162.285156 C 255.078125 161.855469 255.90625 161.503906 256.761719 161.222656 C 257.621094 160.941406 258.496094 160.738281 259.390625 160.613281 C 260.28125 160.488281 261.179688 160.441406 262.082031 160.476562 C 262.992188 160.472656 263.890625 160.558594 264.785156 160.726562 C 265.679688 160.894531 266.546875 161.144531 267.394531 161.476562 C 268.242188 161.808594 269.046875 162.214844 269.816406 162.699219 C 270.585938 163.183594 271.300781 163.738281 271.964844 164.355469 C 272.632812 164.976562 273.230469 165.652344 273.769531 166.386719 C 274.304688 167.117188 274.769531 167.894531 275.160156 168.714844 C 275.546875 169.535156 275.859375 170.386719 276.085938 171.265625 C 276.316406 172.144531 276.460938 173.035156 276.523438 173.941406 C 280.324219 224.824219 272.238281 271.808594 231.902344 308.214844 C 226.933594 312.792969 221.65625 316.972656 216.066406 320.765625 C 210.480469 324.554688 204.640625 327.910156 198.550781 330.832031 C 192.460938 333.753906 186.191406 336.207031 179.734375 338.199219 C 173.28125 340.1875 166.714844 341.6875 160.035156 342.699219 C 158.640625 342.746094 157.050781 343.226562 154.691406 343.515625 Z M 154.691406 343.515625 " fill-opacity="1" fill-rule="nonzero"/></svg>