<svg xmlns="http://www.w3.org/2000/svg" xmlns:xlink="http://www.w3.org/1999/xlink" width="375" zoomAndPan="magnify" viewBox="0 0 281.25 608.999982" height="812" preserveAspectRatio="xMidYMid meet" version="1.0"><defs><clipPath id="acf4b84e86"><path d="M 47 188 L 115 188 L 115 246.15625 L 47 246.15625 Z M 47 188 " clip-rule="nonzero"/></clipPath></defs><path fill="#000000" d="M 278.089844 3.039062 C 276.304688 1.3125 273.683594 0.808594 271.394531 1.757812 C 270.78125 2.035156 209.242188 27.804688 148.367188 53.625 C 112.605469 68.796875 84.039062 81.011719 63.507812 89.933594 C 51.285156 95.234375 41.800781 99.472656 35.273438 102.429688 C 23.277344 107.894531 22.21875 108.5625 21.15625 111.183594 C 20.488281 112.800781 20.601562 114.644531 21.382812 116.203125 C 22.164062 117.765625 23.613281 118.9375 25.285156 119.382812 L 87.609375 135.726562 L 120.808594 205.441406 C 121.699219 207.394531 123.597656 208.675781 125.714844 208.898438 C 125.941406 208.898438 126.164062 208.953125 126.332031 208.953125 C 128.226562 208.953125 130.011719 208.0625 131.183594 206.558594 L 164.4375 162.996094 L 205.277344 178.558594 C 206.003906 178.835938 206.730469 178.949219 207.457031 178.949219 C 209.910156 178.949219 212.199219 177.5 213.144531 175.101562 L 279.484375 9.679688 C 280.433594 7.390625 279.875 4.769531 278.089844 3.039062 Z M 152.496094 158.425781 L 127.503906 191.109375 L 99.828125 132.992188 L 196.242188 76.660156 L 128.730469 139.90625 C 128.730469 139.90625 128.671875 139.964844 128.671875 139.964844 C 128.5625 140.074219 128.449219 140.1875 128.339844 140.296875 C 128.28125 140.355469 128.226562 140.464844 128.171875 140.519531 C 128.058594 140.632812 127.949219 140.800781 127.890625 140.910156 C 127.835938 140.96875 127.78125 141.023438 127.726562 141.136719 C 127.613281 141.359375 127.503906 141.582031 127.390625 141.804688 C 127.390625 141.804688 127.390625 141.804688 127.390625 141.859375 C 127.277344 142.082031 127.222656 142.304688 127.113281 142.527344 C 127.113281 142.585938 127.054688 142.695312 127.054688 142.753906 C 127 142.917969 126.945312 143.085938 126.945312 143.199219 C 126.945312 143.308594 126.886719 143.421875 126.886719 143.476562 C 126.886719 143.589844 126.832031 143.699219 126.832031 143.8125 L 124.320312 171.253906 C 124.042969 174.597656 126.496094 177.609375 129.902344 177.890625 C 133.25 178.167969 136.261719 175.714844 136.539062 172.3125 L 138.324219 152.957031 L 140.949219 153.960938 Z M 204.050781 164.949219 L 156.792969 146.933594 L 144.296875 142.195312 L 244.390625 48.382812 C 246.679688 46.265625 246.957031 42.75 245.117188 40.242188 C 243.273438 37.730469 239.816406 37.0625 237.082031 38.625 L 91.011719 123.957031 L 44.425781 111.742188 C 81.695312 95.011719 184.804688 51.394531 262.691406 18.714844 Z M 204.050781 164.949219 " fill-opacity="1" fill-rule="nonzero"/><path fill="#000000" d="M 7.097656 179.394531 C 8.15625 179.394531 9.273438 179.117188 10.222656 178.503906 L 68.917969 143.253906 C 71.820312 141.523438 72.769531 137.734375 71.039062 134.832031 C 69.308594 131.933594 65.515625 130.984375 62.613281 132.714844 L 3.917969 167.960938 C 1.015625 169.691406 0.0664062 173.484375 1.796875 176.382812 C 2.96875 178.335938 5.035156 179.394531 7.097656 179.394531 Z M 7.097656 179.394531 " fill-opacity="1" fill-rule="nonzero"/><path fill="#000000" d="M 71.875 164.167969 C 70.035156 161.324219 66.238281 160.542969 63.394531 162.382812 L 4.699219 200.921875 C 1.851562 202.765625 1.070312 206.558594 2.914062 209.402344 C 4.085938 211.1875 6.039062 212.191406 8.046875 212.191406 C 9.21875 212.191406 10.390625 211.855469 11.394531 211.1875 L 70.144531 172.648438 C 72.992188 170.804688 73.773438 167.011719 71.875 164.167969 Z M 71.875 164.167969 " fill-opacity="1" fill-rule="nonzero"/><g clip-path="url(#acf4b84e86)"><path fill="#000000" d="M 104.070312 189.65625 L 49.613281 235.335938 C 46.992188 237.511719 46.65625 241.359375 48.832031 243.980469 C 50.058594 245.429688 51.789062 246.15625 53.519531 246.15625 C 54.914062 246.15625 56.308594 245.710938 57.480469 244.707031 L 111.933594 199.027344 C 114.558594 196.851562 114.890625 193.003906 112.714844 190.382812 C 110.539062 187.816406 106.691406 187.480469 104.070312 189.65625 Z M 104.070312 189.65625 " fill-opacity="1" fill-rule="nonzero"/></g><path fill="#000000" d="M 51.0625 210.628906 C 52.292969 212.246094 54.132812 213.136719 56.03125 213.136719 C 57.3125 213.136719 58.539062 212.746094 59.65625 211.964844 L 99.773438 182.519531 C 102.507812 180.511719 103.0625 176.664062 101.109375 173.929688 C 99.101562 171.195312 95.253906 170.640625 92.519531 172.589844 L 52.402344 202.039062 C 49.667969 204.046875 49.054688 207.894531 51.0625 210.628906 Z M 51.0625 210.628906 " fill-opacity="1" fill-rule="nonzero"/><path fill="#000000" d="M 46.210938 215.425781 C 44.035156 212.46875 39.792969 211.800781 36.835938 213.972656 L 28.578125 220.054688 C 25.621094 222.230469 24.953125 226.410156 27.128906 229.421875 C 28.46875 231.207031 30.476562 232.15625 32.539062 232.15625 C 33.933594 232.15625 35.328125 231.710938 36.5 230.875 L 44.757812 224.792969 C 47.773438 222.621094 48.386719 218.378906 46.210938 215.425781 Z M 46.210938 215.425781 " fill-opacity="1" fill-rule="nonzero"/></svg>