<svg xmlns="http://www.w3.org/2000/svg" xmlns:xlink="http://www.w3.org/1999/xlink" width="375" zoomAndPan="magnify" viewBox="0 0 281.25 608.999982" height="812" preserveAspectRatio="xMidYMid meet" version="1.0"><defs><clipPath id="10ed8daafd"><path d="M 0 1.148438 L 280.503906 1.148438 L 280.503906 281.648438 L 0 281.648438 Z M 0 1.148438 " clip-rule="nonzero"/></clipPath></defs><path fill="#ff3131" d="M 167.507812 193.507812 L 85.355469 193.507812 C 79.261719 193.507812 74.320312 188.570312 74.320312 182.476562 L 74.320312 100.320312 C 74.320312 94.226562 79.261719 89.289062 85.355469 89.289062 L 167.507812 89.289062 C 173.601562 89.289062 178.542969 94.226562 178.542969 100.320312 L 178.542969 182.476562 C 178.542969 188.570312 173.601562 193.507812 167.507812 193.507812 " fill-opacity="1" fill-rule="nonzero"/><path fill="#ff3131" d="M 221.265625 180.21875 L 191.367188 164.265625 C 189.398438 163.214844 188.167969 161.164062 188.167969 158.933594 L 188.167969 123.863281 C 188.167969 121.632812 189.398438 119.582031 191.367188 118.53125 L 221.265625 102.578125 C 225.292969 100.429688 230.15625 103.347656 230.15625 107.910156 L 230.15625 174.886719 C 230.15625 179.449219 225.292969 182.367188 221.265625 180.21875 " fill-opacity="1" fill-rule="nonzero"/><g clip-path="url(#10ed8daafd)"><path fill="#ff3131" d="M 140.25 13.136719 C 69.527344 13.136719 11.988281 70.671875 11.988281 141.398438 C 11.988281 212.125 69.527344 269.660156 140.25 269.660156 C 210.976562 269.660156 268.515625 212.125 268.515625 141.398438 C 268.515625 70.671875 210.976562 13.136719 140.25 13.136719 Z M 140.25 281.648438 C 121.320312 281.648438 102.953125 277.941406 85.65625 270.625 C 68.957031 263.5625 53.957031 253.449219 41.078125 240.570312 C 28.199219 227.691406 18.089844 212.691406 11.023438 195.992188 C 3.710938 178.695312 0 160.328125 0 141.398438 C 0 122.46875 3.710938 104.097656 11.023438 86.804688 C 18.089844 70.101562 28.199219 55.105469 41.078125 42.226562 C 53.957031 29.347656 68.957031 19.234375 85.65625 12.171875 C 102.953125 4.855469 121.320312 1.148438 140.25 1.148438 C 159.183594 1.148438 177.550781 4.855469 194.84375 12.171875 C 211.546875 19.234375 226.542969 29.347656 239.425781 42.226562 C 252.300781 55.105469 262.414062 70.101562 269.476562 86.804688 C 276.792969 104.097656 280.503906 122.46875 280.503906 141.398438 C 280.503906 160.328125 276.792969 178.695312 269.476562 195.992188 C 262.414062 212.691406 252.300781 227.691406 239.425781 240.570312 C 226.542969 253.449219 211.546875 263.5625 194.84375 270.625 C 177.550781 277.941406 159.183594 281.648438 140.25 281.648438 " fill-opacity="1" fill-rule="nonzero"/></g></svg>