<svg xmlns="http://www.w3.org/2000/svg" xmlns:xlink="http://www.w3.org/1999/xlink" width="375" zoomAndPan="magnify" viewBox="0 0 281.25 608.999982" height="812" preserveAspectRatio="xMidYMid meet" version="1.0"><defs><clipPath id="0f48a1c290"><path d="M 0 0.808594 L 280.503906 0.808594 L 280.503906 281.3125 L 0 281.3125 Z M 0 0.808594 " clip-rule="nonzero"/></clipPath></defs><path fill="#000000" d="M 167.507812 193.171875 L 85.355469 193.171875 C 79.261719 193.171875 74.320312 188.230469 74.320312 182.140625 L 74.320312 99.984375 C 74.320312 93.890625 79.261719 88.949219 85.355469 88.949219 L 167.507812 88.949219 C 173.601562 88.949219 178.542969 93.890625 178.542969 99.984375 L 178.542969 182.140625 C 178.542969 188.230469 173.601562 193.171875 167.507812 193.171875 " fill-opacity="1" fill-rule="nonzero"/><path fill="#000000" d="M 221.265625 179.882812 L 191.367188 163.925781 C 189.398438 162.875 188.167969 160.824219 188.167969 158.59375 L 188.167969 123.527344 C 188.167969 121.296875 189.398438 119.246094 191.367188 118.195312 L 221.265625 102.238281 C 225.292969 100.09375 230.15625 103.007812 230.15625 107.574219 L 230.15625 174.550781 C 230.15625 179.113281 225.292969 182.027344 221.265625 179.882812 " fill-opacity="1" fill-rule="nonzero"/><g clip-path="url(#0f48a1c290)"><path fill="#000000" d="M 140.25 12.796875 C 69.527344 12.796875 11.988281 70.335938 11.988281 141.0625 C 11.988281 211.785156 69.527344 269.324219 140.25 269.324219 C 210.976562 269.324219 268.515625 211.785156 268.515625 141.0625 C 268.515625 70.335938 210.976562 12.796875 140.25 12.796875 Z M 140.25 281.3125 C 121.320312 281.3125 102.953125 277.601562 85.65625 270.289062 C 68.957031 263.222656 53.957031 253.113281 41.078125 240.234375 C 28.199219 227.355469 18.089844 212.355469 11.023438 195.652344 C 3.710938 178.359375 0 159.992188 0 141.0625 C 0 122.128906 3.710938 103.761719 11.023438 86.46875 C 18.089844 69.765625 28.199219 54.769531 41.078125 41.886719 C 53.957031 29.011719 68.957031 18.898438 85.65625 11.835938 C 102.953125 4.519531 121.320312 0.808594 140.25 0.808594 C 159.183594 0.808594 177.550781 4.519531 194.84375 11.835938 C 211.546875 18.898438 226.542969 29.011719 239.425781 41.886719 C 252.300781 54.769531 262.414062 69.765625 269.476562 86.46875 C 276.792969 103.761719 280.503906 122.128906 280.503906 141.0625 C 280.503906 159.992188 276.792969 178.359375 269.476562 195.652344 C 262.414062 212.355469 252.300781 227.355469 239.425781 240.234375 C 226.542969 253.113281 211.546875 263.222656 194.84375 270.289062 C 177.550781 277.601562 159.183594 281.3125 140.25 281.3125 " fill-opacity="1" fill-rule="nonzero"/></g></svg>