<svg xmlns="http://www.w3.org/2000/svg" xmlns:xlink="http://www.w3.org/1999/xlink" width="375" zoomAndPan="magnify" viewBox="0 0 281.25 608.999982" height="812" preserveAspectRatio="xMidYMid meet" version="1.0"><defs><clipPath id="afedd6885e"><path d="M 0 0.808594 L 280.503906 0.808594 L 280.503906 281.3125 L 0 281.3125 Z M 0 0.808594 " clip-rule="nonzero"/></clipPath></defs><path fill="#000000" d="M 179.566406 86.632812 C 179.566406 100.675781 168.183594 112.066406 154.136719 112.066406 C 140.09375 112.066406 128.707031 100.675781 128.707031 86.632812 C 128.707031 72.585938 140.09375 61.199219 154.136719 61.199219 C 168.175781 61.199219 179.566406 72.585938 179.566406 86.632812 Z M 179.566406 86.632812 " fill-opacity="1" fill-rule="nonzero"/><path fill="#000000" d="M 120.167969 90.976562 C 120.167969 102.625 110.726562 112.066406 99.085938 112.066406 C 87.445312 112.066406 78.003906 102.625 78.003906 90.976562 C 78.003906 79.335938 87.445312 69.898438 99.085938 69.898438 C 110.726562 69.898438 120.167969 79.335938 120.167969 90.976562 Z M 120.167969 90.976562 " fill-opacity="1" fill-rule="nonzero"/><path fill="#000000" d="M 188.425781 130.234375 L 188.425781 183.703125 C 188.425781 191.359375 181.761719 197.5625 173.535156 197.5625 L 84.027344 197.5625 C 75.800781 197.5625 69.136719 191.359375 69.136719 183.703125 L 69.136719 130.234375 C 69.136719 122.582031 75.800781 116.375 84.027344 116.375 L 173.535156 116.375 C 181.761719 116.375 188.425781 122.585938 188.425781 130.234375 Z M 188.425781 130.234375 " fill-opacity="1" fill-rule="nonzero"/><path fill="#000000" d="M 224.183594 124.332031 L 224.183594 189.605469 L 195.980469 174.4375 L 195.980469 139.5 Z M 224.183594 124.332031 " fill-opacity="1" fill-rule="nonzero"/><path fill="#f80000" d="M 190.875 265.78125 C 207.574219 259.007812 222.5625 249.0625 235.40625 236.214844 C 248.257812 223.347656 258.210938 208.363281 264.976562 191.671875 C 271.519531 175.550781 274.832031 158.511719 274.832031 141.039062 C 274.832031 123.554688 271.519531 106.507812 264.976562 90.382812 C 258.195312 73.675781 248.246094 58.6875 235.40625 45.847656 C 222.566406 33.007812 207.582031 23.054688 190.875 16.273438 C 174.746094 9.730469 157.703125 6.417969 140.21875 6.417969 C 122.746094 6.417969 105.710938 9.730469 89.582031 16.273438 C 72.863281 23.054688 57.878906 33.003906 45.050781 45.847656 C 32.191406 58.6875 22.246094 73.675781 15.476562 90.382812 C 8.929688 106.527344 5.605469 123.570312 5.605469 141.039062 C 5.605469 158.488281 8.929688 175.527344 15.476562 191.671875 C 22.234375 208.363281 32.183594 223.347656 45.042969 236.214844 C 57.878906 249.0625 72.863281 259.007812 89.578125 265.773438 C 105.699219 272.320312 122.734375 275.644531 140.210938 275.644531 C 157.710938 275.644531 174.753906 272.320312 190.875 265.78125 Z M 51.316406 213.835938 C 50.664062 213.796875 50.050781 213.484375 49.644531 212.972656 C 42.789062 204.398438 37.199219 194.84375 33.03125 184.574219 C 27.410156 170.742188 24.558594 156.097656 24.558594 141.042969 C 24.558594 125.992188 27.410156 111.351562 33.039062 97.511719 C 38.839844 83.175781 47.390625 70.300781 58.441406 59.246094 C 69.480469 48.21875 82.347656 39.671875 96.6875 33.84375 C 110.5625 28.222656 125.210938 25.375 140.21875 25.375 C 155.234375 25.375 169.882812 28.222656 183.746094 33.84375 C 194.003906 38.007812 203.5625 43.597656 212.15625 50.449219 C 212.671875 50.859375 212.984375 51.46875 213.023438 52.121094 C 213.023438 52.164062 213.023438 52.210938 213.023438 52.25 C 213.023438 52.863281 212.78125 53.449219 212.347656 53.882812 L 103.402344 162.835938 L 84.667969 181.574219 L 79.902344 186.34375 L 61.363281 204.878906 L 53.082031 213.160156 C 52.609375 213.625 51.972656 213.867188 51.316406 213.835938 Z M 96.6875 248.234375 C 86.417969 244.0625 76.859375 238.472656 68.289062 231.628906 C 67.773438 231.21875 67.460938 230.609375 67.425781 229.957031 C 67.425781 229.910156 67.421875 229.871094 67.421875 229.828125 C 67.421875 229.21875 67.664062 228.628906 68.097656 228.195312 L 114.71875 181.574219 L 227.378906 68.910156 C 227.839844 68.449219 228.484375 68.203125 229.140625 68.242188 C 229.800781 68.28125 230.40625 68.589844 230.8125 69.109375 C 237.703125 77.753906 243.289062 87.308594 247.417969 97.519531 C 253.039062 111.390625 255.878906 126.035156 255.878906 141.050781 C 255.878906 156.0625 253.03125 170.710938 247.417969 184.578125 C 241.605469 198.910156 233.054688 211.78125 222.003906 222.832031 C 210.988281 233.875 198.113281 242.425781 183.746094 248.246094 C 169.917969 253.863281 155.269531 256.707031 140.21875 256.707031 C 125.171875 256.695312 110.527344 253.851562 96.6875 248.234375 Z M 96.6875 248.234375 " fill-opacity="1" fill-rule="nonzero"/><g clip-path="url(#afedd6885e)"><path stroke-linecap="butt" transform="matrix(0.562918, 0, 0, 0.562918, -0.506626, 0.303205)" fill="none" stroke-linejoin="miter" d="M 339.981403 471.610571 C 369.646862 459.577845 396.272913 441.910416 419.089294 419.087095 C 441.919554 396.229078 459.600861 369.609967 471.619709 339.958386 C 483.243018 311.319942 489.127535 281.050765 489.127535 250.011326 C 489.127535 218.95107 483.243018 188.668014 471.619709 160.02263 C 459.573104 130.343293 441.898736 103.717242 419.089294 80.9078 C 396.279852 58.098358 369.660741 40.417051 339.981403 28.370445 C 311.32908 16.747137 281.052963 10.86262 249.992707 10.86262 C 218.953269 10.86262 188.691031 16.747137 160.038708 28.370445 C 130.338552 40.417051 103.719441 58.091419 80.930817 80.9078 C 58.086678 103.717242 40.419249 130.343293 28.393462 160.02263 C 16.763214 188.702711 10.857879 218.978827 10.857879 250.011326 C 10.857879 281.009129 16.763214 311.278306 28.393462 339.958386 C 40.398431 369.609967 58.0728 396.229078 80.916938 419.087095 C 103.719441 441.910416 130.338552 459.577845 160.031768 471.596693 C 188.670213 483.226941 218.932451 489.132275 249.978828 489.132275 C 281.066842 489.132275 311.342958 483.226941 339.981403 471.610571 Z M 92.061436 379.33191 C 90.902574 379.262517 89.813106 378.707374 89.09142 377.798328 C 76.912968 362.566589 66.982846 345.593089 59.578625 327.349699 C 49.592989 302.777677 44.527308 276.762284 44.527308 250.018266 C 44.527308 223.281186 49.592989 197.272732 59.592504 172.686832 C 69.897348 147.219643 85.087451 124.347747 104.718698 104.70956 C 124.329128 85.119948 147.187145 69.936785 172.661274 59.583366 C 197.309627 49.597729 223.33196 44.538988 249.992707 44.538988 C 276.667333 44.538988 302.689665 49.597729 327.317201 59.583366 C 345.539773 66.980648 362.520213 76.91077 377.786648 89.082282 C 378.702634 89.810907 379.257777 90.893436 379.32717 92.052298 C 379.32717 92.12863 379.32717 92.211901 379.32717 92.281294 C 379.32717 93.370763 378.896934 94.411656 378.126673 95.181917 L 184.589911 288.732557 L 151.309083 322.020325 L 142.84315 330.493197 L 109.909286 363.420121 L 95.197994 378.131413 C 94.35834 378.957189 93.227236 379.387425 92.061436 379.33191 Z M 172.661274 440.439287 C 154.417884 433.028126 137.437444 423.098004 122.212645 410.94037 C 121.296659 410.211745 120.741516 409.129216 120.679062 407.970355 C 120.679062 407.887083 120.672123 407.81769 120.672123 407.741358 C 120.672123 406.658829 121.102359 405.610997 121.87262 404.840736 L 204.69303 322.020325 L 404.829056 121.877361 C 405.647892 121.058524 406.792874 120.621349 407.958675 120.690742 C 409.131415 120.760135 410.207004 121.308339 410.92869 122.231264 C 423.169596 137.58791 433.092779 154.56141 440.427607 172.700711 C 450.413243 197.342125 455.458106 223.357518 455.458106 250.032144 C 455.458106 276.699831 450.399365 302.722163 440.427607 327.356638 C 430.101945 352.816888 414.911842 375.681845 395.280594 395.313092 C 375.7118 414.930461 352.839905 430.120564 327.317201 440.460104 C 302.752119 450.438802 276.729786 455.490604 249.992707 455.490604 C 223.262567 455.469786 197.247174 450.417984 172.661274 440.439287 Z M 172.661274 440.439287 " stroke="#f80000" stroke-width="20" stroke-opacity="1" stroke-miterlimit="10"/></g></svg>